<svg xmlns="http://www.w3.org/2000/svg" xmlns:xlink="http://www.w3.org/1999/xlink" width="902.134" height="367.978" viewBox="0 0 902.134 367.978">
  <defs>
    <linearGradient id="linear-gradient" x1="0.411" y1="0.312" x2="0" y2="1" gradientUnits="objectBoundingBox">
      <stop offset="0" stop-color="#ff8345"/>
      <stop offset="1" stop-color="#f85c70"/>
    </linearGradient>
  </defs>
  <g id="Group_361" data-name="Group 361" transform="translate(902.134) rotate(90)" opacity="0.12">
    <path id="Intersection_13" data-name="Intersection 13" d="M0,0,290.583,436.608c32.773,49.24,16.822,114.1-35.622,144.867L0,731.055Z" transform="translate(340.69 731.055) rotate(180)" fill="url(#linear-gradient)"/>
    <g id="Intersection_12" data-name="Intersection 12" transform="translate(367.977 902.134) rotate(180)" fill="none">
      <path d="M0,0,347.605,468.654c39.2,52.854,20.123,122.471-42.612,155.5L0,784.712Z" stroke="none"/>
      <path d="M 1.999969482421875 6.05377197265625 L 1.999969482421875 781.3990478515625 L 304.0610656738281 622.3839111328125 C 312.02294921875 618.1921997070312 319.4440612792969 613.3015747070312 326.1181640625 607.8477783203125 C 332.6087646484375 602.5439453125 338.461181640625 596.6527709960938 343.5127563476562 590.3380126953125 C 348.4667663574219 584.1449584960938 352.691650390625 577.4942016601562 356.070068359375 570.5703735351562 C 359.4163513183594 563.712158203125 361.9547729492188 556.540283203125 363.6148681640625 549.25390625 C 365.1207580566406 542.6439819335938 365.9144592285156 535.8866577148438 365.973876953125 529.1697998046875 C 366.0338745117188 522.3834838867188 365.3447570800781 515.564208984375 363.9256591796875 508.9010925292969 C 362.4797668457031 502.1122741699219 360.2578735351562 495.4019775390625 357.3214721679688 488.9565734863281 C 354.3077697753906 482.3414916992188 350.4983520507812 475.9116821289062 345.9988708496094 469.8455810546875 L 1.999969482421875 6.05377197265625 M -3.0517578125e-05 0 L 347.6052551269531 468.6540832519531 C 386.8089599609375 521.5078125 367.7284545898438 591.1253662109375 304.9927673339844 624.153564453125 L -3.0517578125e-05 784.712158203125 L -3.0517578125e-05 0 Z" stroke="none" fill="#fff"/>
    </g>
  </g>
</svg>
