<svg xmlns="http://www.w3.org/2000/svg" xmlns:xlink="http://www.w3.org/1999/xlink" width="902.134" height="367.978" viewBox="0 0 902.134 367.978">
  <defs>
    <linearGradient id="linear-gradient" x1="0.411" y1="0.688" x2="0" gradientUnits="objectBoundingBox">
      <stop offset="0" stop-color="#ff8345"/>
      <stop offset="1" stop-color="#f85c70"/>
    </linearGradient>
  </defs>
  <g id="Group_362" data-name="Group 362" transform="translate(0 367.978) rotate(-90)" opacity="0.12">
    <path id="Intersection_13" data-name="Intersection 13" d="M0,731.055,290.583,294.446c32.773-49.24,16.822-114.1-35.622-144.867L0,0Z" transform="translate(340.69 902.134) rotate(180)" fill="url(#linear-gradient)"/>
    <g id="Intersection_12" data-name="Intersection 12" transform="translate(367.978 784.712) rotate(180)" fill="none">
      <path d="M0,784.712,347.605,316.058c39.2-52.854,20.123-122.471-42.612-155.5L0,0Z" stroke="none"/>
      <path d="M 2.00001049041748 778.6583862304688 L 345.9990234375 314.8665466308594 C 350.4984130859375 308.8004455566406 354.3079223632812 302.3706359863281 357.3215026855469 295.7556457519531 C 360.2579040527344 289.3101501464844 362.4797973632812 282.599853515625 363.9257202148438 275.81103515625 C 365.3448181152344 269.1480407714844 366.0339050292969 262.3286437988281 365.9739074707031 255.5424499511719 C 365.9145202636719 248.8254547119141 365.1208190917969 242.0681457519531 363.6148986816406 235.458251953125 C 361.9548034667969 228.1718444824219 359.4164123535156 220.9999542236328 356.0700988769531 214.1417541503906 C 352.6918029785156 207.2179412841797 348.4669189453125 200.5671539306641 343.5128173828125 194.3741455078125 C 338.4612121582031 188.0593414306641 332.6089172363281 182.1682434082031 326.1182250976562 176.8643493652344 C 319.4442138671875 171.41064453125 312.0231018066406 166.5200500488281 304.0612182617188 162.3284454345703 L 2.00001049041748 3.313194751739502 L 2.00001049041748 778.6583862304688 M 1.049804723152192e-05 784.712158203125 L 1.049804723152192e-05 4.858398460783064e-05 L 304.992919921875 160.5586547851562 C 367.728515625 193.5867462158203 386.8090209960938 263.2044372558594 347.6053161621094 316.0580444335938 L 1.049804723152192e-05 784.712158203125 Z" stroke="none" fill="#fff"/>
    </g>
  </g>
</svg>
